<?xml version="1.0" encoding="utf-8"?>
<!-- Generator: Adobe Illustrator 27.2.0, SVG Export Plug-In . SVG Version: 6.00 Build 0)  -->
<svg version="1.1" id="Calque_1" xmlns="http://www.w3.org/2000/svg" xmlns:xlink="http://www.w3.org/1999/xlink" x="0px" y="0px"
	 viewBox="0 0 120 120" style="enable-background:new 0 0 120 120;" xml:space="preserve">
<style type="text/css">
	.st0{fill:#24AF8E;stroke:#24AF8E;stroke-width:5.6793;stroke-miterlimit:10;}
</style>
<g>
	<path class="st0" d="M53.9,113.4L4.3,63.9C4.1,63.4,4,62.8,3.9,62s-0.2-1.6-0.2-2.4c0-0.8,0.1-1.6,0.2-2.4c0.1-0.8,0.3-1.5,0.4-1.9
		L53.9,5.7c1.9,1,3.8,2.6,5.7,4.8c2,2.1,3.5,4.1,4.6,6l-30.1,29c-1.3,1.3-2.7,2.5-4.2,3.7s-3,2.3-4.4,3.4c1.3-0.1,2.7-0.2,4.2-0.2
		c1.6,0,2.9-0.1,4-0.1c27.1,0.1,54.2,0.3,81.2,0.4c0.5,1.7,1.1,4.2,1.1,7.3s-0.7,5.6-1.3,7.3c-27-0.1-54-0.3-81-0.4
		c-1.1,0-2.5,0-4-0.1c-1.6,0-3-0.1-4.2-0.2c1.5,1,2.9,2.1,4.4,3.3c1.5,1.2,2.9,2.5,4.2,3.8l30.1,29c-1.1,1.9-2.6,3.8-4.6,6
		C57.6,110.8,55.7,112.3,53.9,113.4z"/>
</g>
</svg>
