<?xml version="1.0" encoding="utf-8"?>
<!-- Generator: Adobe Illustrator 27.2.0, SVG Export Plug-In . SVG Version: 6.00 Build 0)  -->
<svg version="1.1" id="Calque_1" xmlns="http://www.w3.org/2000/svg" xmlns:xlink="http://www.w3.org/1999/xlink" x="0px" y="0px"
	 viewBox="0 0 120 120" style="enable-background:new 0 0 120 120;" xml:space="preserve">
<style type="text/css">
	.st0{fill:#22AF8E;}
</style>
<path class="st0" d="M33.6,29.9L33.6,29.9c0-8.8,7.2-15.9,15.9-15.9h21.2c8.8,0,15.9,7.2,15.9,15.9v0C68.9,29.9,51.3,29.9,33.6,29.9
	z"/>
<g>
	<ellipse transform="matrix(0.7071 -0.7071 0.7071 0.7071 -30.409 62.28)" class="st0" cx="60" cy="67.8" rx="16.1" ry="16.1"/>
	<path class="st0" d="M103.9,29.4H16.1c-8.8,0-15.9,7.2-15.9,15.9v44.7c0,8.8,7.2,15.9,15.9,15.9h87.8c8.8,0,15.9-7.2,15.9-15.9
		V45.3C119.8,36.6,112.7,29.4,103.9,29.4z M60,95.5c-15.3,0-27.6-12.4-27.6-27.6c0-15.3,12.4-27.6,27.6-27.6
		c15.3,0,27.6,12.4,27.6,27.6C87.6,83.1,75.2,95.5,60,95.5z"/>
</g>
</svg>
