<?xml version="1.0" encoding="utf-8"?>
<!-- Generator: Adobe Illustrator 27.2.0, SVG Export Plug-In . SVG Version: 6.00 Build 0)  -->
<svg version="1.1" id="Calque_1" xmlns="http://www.w3.org/2000/svg" xmlns:xlink="http://www.w3.org/1999/xlink" x="0px" y="0px"
	 viewBox="0 0 120 120" style="enable-background:new 0 0 120 120;" xml:space="preserve">
<style type="text/css">
	.st0{fill:#14AE8D;}
</style>
<g>
	<g>
		<path class="st0" d="M103,65.6c9.3,0,16.9,7.3,16.9,16.7c0,9.3-7.6,16.9-16.9,16.9c-9.4,0-16.9-7.6-16.9-16.9
			C86.1,72.9,93.7,65.6,103,65.6z"/>
		<path class="st0" d="M60,65.6c9.3,0,16.9,7.3,16.9,16.7c0,9.3-7.6,16.9-16.9,16.9c-9.4,0-16.9-7.6-16.9-16.9
			C43.1,72.9,50.7,65.6,60,65.6z"/>
		<path class="st0" d="M17,65.6c9.3,0,16.9,7.3,16.9,16.7c0,9.3-7.6,16.9-16.9,16.9c-9.4,0-16.9-7.6-16.9-16.9
			C0.1,72.9,7.7,65.6,17,65.6z"/>
	</g>
	<g>
		<path class="st0" d="M103,20.8c9.3,0,16.9,7.3,16.9,16.7c0,9.3-7.6,16.9-16.9,16.9c-9.4,0-16.9-7.6-16.9-16.9
			C86.1,28.1,93.7,20.8,103,20.8z"/>
		<path class="st0" d="M60,20.8c9.3,0,16.9,7.3,16.9,16.7c0,9.3-7.6,16.9-16.9,16.9c-9.4,0-16.9-7.6-16.9-16.9
			C43.1,28.1,50.7,20.8,60,20.8z"/>
		<path class="st0" d="M17,20.8c9.3,0,16.9,7.3,16.9,16.7c0,9.3-7.6,16.9-16.9,16.9c-9.4,0-16.9-7.6-16.9-16.9
			C0.1,28.1,7.7,20.8,17,20.8z"/>
	</g>
</g>
</svg>
