<?xml version="1.0" encoding="utf-8"?>
<!-- Generator: Adobe Illustrator 27.2.0, SVG Export Plug-In . SVG Version: 6.00 Build 0)  -->
<svg version="1.1" id="Calque_1" xmlns="http://www.w3.org/2000/svg" xmlns:xlink="http://www.w3.org/1999/xlink" x="0px" y="0px"
	 viewBox="0 0 120 120" style="enable-background:new 0 0 120 120;" xml:space="preserve">
<style type="text/css">
	.st0{fill:#14AE8D;stroke:#14AE8D;stroke-width:3.4989;stroke-miterlimit:10;}
	.st1{fill:#14AE8D;}
</style>
<path class="st0" d="M92.1,58.5c0,17.3-14.4,31.4-32.1,31.4c-17.7,0-32.1-14-32.1-31.4H17.1c0,0,0,0.1,0,0.1
	c0,23.2,19.2,41.9,42.9,41.9c23.7,0,42.9-18.8,42.9-41.9c0,0,0-0.1,0-0.1H92.1z"/>
<path class="st1" d="M61.9,79.2h-3.9c-10.1,0-18.3-8.2-18.3-18.3V18.3C39.8,8.2,48,0,58.1,0l3.9,0C72,0,80.2,8.2,80.2,18.3v42.6
	C80.2,70.9,72,79.2,61.9,79.2z"/>
<rect x="52.9" y="100" class="st1" width="14.1" height="20"/>
</svg>
