<?xml version="1.0" encoding="utf-8"?>
<!-- Generator: Adobe Illustrator 27.2.0, SVG Export Plug-In . SVG Version: 6.00 Build 0)  -->
<svg version="1.1" id="Calque_1" xmlns="http://www.w3.org/2000/svg" xmlns:xlink="http://www.w3.org/1999/xlink" x="0px" y="0px"
	 viewBox="0 0 120 120" style="enable-background:new 0 0 120 120;" xml:space="preserve">
<style type="text/css">
	.st0{fill:#14AE8D;}
</style>
<path class="st0" d="M60,2.8C28.4,2.8,2.8,28.4,2.8,60c0,31.6,25.6,57.2,57.2,57.2c31.6,0,57.2-25.6,57.2-57.2
	C117.2,28.4,91.6,2.8,60,2.8z M27.4,73.2c-6,0-10.8-4.7-10.8-10.6s4.9-10.8,10.8-10.8c6,0,10.8,4.8,10.8,10.8S33.4,73.2,27.4,73.2z
	 M61.2,73.2c-6,0-10.8-4.7-10.8-10.6s4.9-10.8,10.8-10.8c6,0,10.8,4.8,10.8,10.8S67.2,73.2,61.2,73.2z M95.1,73.2
	c-6,0-10.8-4.7-10.8-10.6s4.9-10.8,10.8-10.8c6,0,10.8,4.8,10.8,10.8S101,73.2,95.1,73.2z"/>
</svg>
