<?xml version="1.0" encoding="utf-8"?>
<!-- Generator: Adobe Illustrator 27.2.0, SVG Export Plug-In . SVG Version: 6.00 Build 0)  -->
<svg version="1.1" id="Calque_1" xmlns="http://www.w3.org/2000/svg" xmlns:xlink="http://www.w3.org/1999/xlink" x="0px" y="0px"
	 viewBox="0 0 120 120" style="enable-background:new 0 0 120 120;" xml:space="preserve">
<style type="text/css">
	.st0{fill:#14AE8D;}
</style>
<path class="st0" d="M45.1,70.3c2.5,3,5.9,6.5,10.3,9.9c6.5,5,12.7,8,17.5,9.8c0,0,2.9,1.2,11.7-12c0,0,3.9-4.9,9.3-0.2
	c0,0,17.1,10,20,11c0,0,1.7,0.7,2.2,3.9c0,0-1.1,8.9-2.6,11.8c0,0-7,10.3-23.7,11.8c-7.7-1.2-19.3-3.9-32-10.7
	c-12.9-7-21.6-15.4-26.8-21.3c-25.5-25.6-27-54.1-27-54.1C5.3,13.5,15.6,6.4,15.6,6.4c2.9-1.5,11.8-2.7,11.8-2.7
	c3.2,0.5,3.9,2.2,3.9,2.2c1,2.9,11.1,19.9,11.1,19.9c4.7,5.4-0.2,9.3-0.2,9.3c-13.2,8.9-12,11.8-12,11.8C33.4,58.5,47.6,73,47.6,73"
	/>
</svg>
