<?xml version="1.0" encoding="utf-8"?>
<!-- Generator: Adobe Illustrator 27.2.0, SVG Export Plug-In . SVG Version: 6.00 Build 0)  -->
<svg version="1.1" id="Calque_1" xmlns="http://www.w3.org/2000/svg" xmlns:xlink="http://www.w3.org/1999/xlink" x="0px" y="0px"
	 viewBox="0 0 120 120" style="enable-background:new 0 0 120 120;" xml:space="preserve">
<style type="text/css">
	.st0{fill:#14AE8D;}
</style>
<path class="st0" d="M60,0C27,0,0,27,0,60s27,60,60,60s60-27,60-60S93,0,60,0z M89.7,94.4C80.3,88.2,70.9,82,61.6,75.8
	c-0.8-0.5-1.8-0.5-2.6,0C49.4,82,39.8,88.3,30.2,94.6c-2,1.3-4.4-0.8-3.5-2.9C37,68.1,47.2,44.6,57.4,21.1c0.8-1.9,3.5-1.9,4.3,0
	c10.5,23.5,20.9,47,31.4,70.5C94.1,93.7,91.6,95.7,89.7,94.4z"/>
</svg>
