<?xml version="1.0" encoding="utf-8"?>
<!-- Generator: Adobe Illustrator 27.2.0, SVG Export Plug-In . SVG Version: 6.00 Build 0)  -->
<svg version="1.1" id="Calque_1" xmlns="http://www.w3.org/2000/svg" xmlns:xlink="http://www.w3.org/1999/xlink" x="0px" y="0px"
	 viewBox="0 0 120 120" style="enable-background:new 0 0 120 120;" xml:space="preserve">
<style type="text/css">
	.st0{fill:#0EAD8C;}
</style>
<path class="st0" d="M68,92.6H15.7c-6.6,0-12-5.4-12-12V38.1c0-6.6,5.4-12,12-12H68c6.6,0,12,5.4,12,12v42.4
	C80,87.2,74.6,92.6,68,92.6z"/>
<path class="st0" d="M109.2,33.1h0.8c3.8,0,6.9,3.1,6.9,6.9v39c0,3.8-3.1,6.9-6.9,6.9h-0.8c-7.8-4-15.5-8.1-23.3-12.1
	c0-9.4,0.1-18.9,0.1-28.3C93.7,41.2,101.5,37.2,109.2,33.1z"/>
</svg>
